# xmcd CD database file
#
# Track frame offsets:
#	150
#	9290
#	22271
#	42176
#	55524
#	73239
#	84148
#	101696
#	113785
#	136914
#	153978
#	172078
#	183980
#	193592
#	210745
#
# Disc length: 3013 seconds
#
# Revision: 0
# Processed by: cddbd v1.5.1PL0 Copyright (c) Steve Scherf et al.
# Submitted via: CDex 1.51
#
DISCID=c40bc30f
DTITLE=O'Neill, Gene - I'm Still Smiling
DYEAR=1994
DGENRE=Jazz
TTITLE0=You're Lucky To Me
TTITLE1=I'm Gonna Sit Right Down
TTITLE2=Ain't No Sunshine
TTITLE3=As Time Goes By
TTITLE4=Days Of Wine And Roses
TTITLE5=Heart And Sound
TTITLE6=Send In The Clowns
TTITLE7=Moondance
TTITLE8=Wonderful World
TTITLE9=Old Man river
TTITLE10=I'm Still Smiling
TTITLE11=Over The Rainbow
TTITLE12=Zip-a-dec-doo-dah
TTITLE13=Both Sides, Now
TTITLE14=Hard Days Night - Norwegian Wood
EXTD=YEAR: 1994
EXTT0=
EXTT1=
EXTT2=
EXTT3=
EXTT4=
EXTT5=
EXTT6=
EXTT7=
EXTT8=
EXTT9=
EXTT10=
EXTT11=
EXTT12=
EXTT13=
EXTT14=
PLAYORDER=
